<svg xmlns="http://www.w3.org/2000/svg" xmlns:xlink="http://www.w3.org/1999/xlink" width="622" height="453" viewBox="0 0 622 453">
  <defs>
    <style>
      .cls-1, .cls-2, .cls-3, .cls-4 {
        fill-rule: evenodd;
      }

      .cls-1 {
        filter: url(#filter);
      }

      .cls-2 {
        filter: url(#filter-2);
      }

      .cls-3 {
        fill: #fff;
      }

      .cls-4 {
        fill: #feed00;
        opacity: 0.9;
      }
    </style>
    <filter id="filter" x="240" y="512" width="160" height="160" filterUnits="userSpaceOnUse">
      <feFlood result="flood" flood-color="#feef19"/>
      <feComposite result="composite" operator="in" in2="SourceGraphic"/>
      <feBlend result="blend" in2="SourceGraphic"/>
    </filter>
    <filter id="filter-2" x="212" y="484" width="216" height="216" filterUnits="userSpaceOnUse">
      <feFlood result="flood" flood-color="#fff"/>
      <feComposite result="composite" operator="in" in2="SourceGraphic"/>
      <feBlend result="blend" in2="SourceGraphic"/>
    </filter>
  </defs>
  <g id="index4">
    <g id="blue">
      <g id="txt">
        <path class="cls-1" d="M348.6,585.878c-3.313,0-6.218,1.845-6.218,3.948a3.091,3.091,0,0,0,1.121,2.2l-0.448.49h0l0.448-.488a6.345,6.345,0,0,0,2.163,1.246c0.037,0.013.07,0.031,0.107,0.043a8.483,8.483,0,0,0,1.117.279q0.273,0.051.549,0.084c0.217,0.028.438,0.041,0.66,0.054a9.752,9.752,0,0,0,1,0c0.223-.013.445-0.026,0.663-0.054q0.276-.033.547-0.084a8.7,8.7,0,0,0,1.121-.279c0.033-.012.063-0.028,0.1-0.039a6.353,6.353,0,0,0,2.172-1.25l0.447,0.487h0l-0.447-.488a3.092,3.092,0,0,0,1.123-2.2C354.822,587.723,351.915,585.878,348.6,585.878ZM320,541.368A50.63,50.63,0,1,0,370.628,592,50.686,50.686,0,0,0,320,541.368Zm0,63.233a3.587,3.587,0,1,1-3.586,3.587A3.587,3.587,0,0,1,320,604.6ZM302.51,596.86a7.24,7.24,0,0,1,.075,1.033c0,5-4.915,8.919-11.19,8.919s-11.189-3.918-11.189-8.919a7.132,7.132,0,0,1,.075-1.037,5,5,0,0,1,1.333-2.717,7.592,7.592,0,0,1-1.408-4.313,7.855,7.855,0,0,1,2.385-5.554l-2.021-3.308a2.485,2.485,0,0,1,4.242-2.591l2.012,3.292a14.182,14.182,0,0,1,9.143,0l2.012-3.292a2.485,2.485,0,0,1,4.242,2.591l-2.021,3.308a7.855,7.855,0,0,1,2.385,5.554,7.588,7.588,0,0,1-1.409,4.314A5,5,0,0,1,302.51,596.86ZM320,622.448c-7.739,0-13.8-3.961-13.8-9.018a2.485,2.485,0,0,1,4.969,0c0,1.651,3.441,4.048,8.833,4.048s8.832-2.4,8.832-4.048a2.485,2.485,0,0,1,4.97,0C333.8,618.487,327.738,622.448,320,622.448Zm28.6-15.636c-6.273,0-11.188-3.918-11.188-8.919a7.132,7.132,0,0,1,.075-1.037,5,5,0,0,1,1.333-2.716,7.59,7.59,0,0,1-1.408-4.314,7.854,7.854,0,0,1,2.386-5.555l-2.022-3.307a2.485,2.485,0,0,1,4.242-2.591l2.012,3.292a14.179,14.179,0,0,1,9.142,0l2.012-3.292a2.485,2.485,0,1,1,4.241,2.591l-2.021,3.308a7.851,7.851,0,0,1,2.385,5.554,7.6,7.6,0,0,1-1.408,4.314,5,5,0,0,1,1.334,2.716,7.132,7.132,0,0,1,.074,1.037C359.791,602.894,354.877,606.812,348.6,606.812ZM291.4,585.878c-3.312,0-6.219,1.845-6.219,3.948a3.1,3.1,0,0,0,1.122,2.2h0a6.38,6.38,0,0,0,2.183,1.254c0.029,0.01.055,0.024,0.084,0.033a8.581,8.581,0,0,0,1.126.282c0.179,0.033.36,0.06,0.542,0.083,0.219,0.028.442,0.042,0.666,0.054a9.693,9.693,0,0,0,.994,0c0.223-.013.445-0.026,0.664-0.054,0.183-.023.364-0.05,0.543-0.083a8.611,8.611,0,0,0,1.128-.282c0.026-.009.05-0.021,0.076-0.03a6.379,6.379,0,0,0,2.189-1.257h0a3.091,3.091,0,0,0,1.122-2.2C297.615,587.723,294.709,585.878,291.4,585.878Zm6.194,11.683a0.1,0.1,0,0,0-.074-0.089,0.349,0.349,0,0,0-.319,0c-0.021.01-.044,0.017-0.066,0.027a12.685,12.685,0,0,1-1.225.5c-0.072.024-.146,0.044-0.218,0.067-0.414.136-.839,0.251-1.272,0.347l-0.022,0a13.613,13.613,0,0,1-5.994,0l-0.024,0a13.056,13.056,0,0,1-1.274-.348c-0.07-.022-0.142-0.042-0.212-0.066a12.6,12.6,0,0,1-1.233-.5c-0.019-.009-0.041-0.015-0.06-0.024a0.361,0.361,0,0,0-.157-0.037,0.345,0.345,0,0,0-.163.041,0.886,0.886,0,0,0-.1.42c0,2.1,2.907,3.949,6.219,3.949s6.22-1.845,6.22-3.949a2.364,2.364,0,0,0-.024-0.327Zm57.21,0a0.112,0.112,0,0,0-.077-0.091,0.343,0.343,0,0,0-.319,0c-0.019.009-.041,0.015-0.06,0.024a12.352,12.352,0,0,1-1.233.5c-0.07.024-.142,0.044-0.212,0.067-0.415.136-.839,0.25-1.273,0.346l-0.027.006a13.606,13.606,0,0,1-5.988,0l-0.029-.006c-0.434-.1-0.86-0.212-1.275-0.348-0.069-.022-0.139-0.041-0.207-0.064a12.54,12.54,0,0,1-1.242-.5c-0.017-.008-0.036-0.013-0.053-0.021a0.36,0.36,0,0,0-.156-0.037,0.347,0.347,0,0,0-.164.041,0.886,0.886,0,0,0-.1.42c0,2.1,2.9,3.949,6.218,3.949s6.22-1.845,6.22-3.949a2.363,2.363,0,0,0-.023-0.327v0ZM320,532.918A59.08,59.08,0,1,0,379.078,592,59.147,59.147,0,0,0,320,532.918ZM320,647.6A55.6,55.6,0,1,1,375.6,592,55.662,55.662,0,0,1,320,647.6ZM320,512a80,80,0,1,0,80,80A80,80,0,0,0,320,512Zm0,144.05A64.049,64.049,0,1,1,384.048,592,64.12,64.12,0,0,1,320,656.046Z" transform="translate(-8 -337)"/>
        <path class="cls-2" d="M416.437,601.334C422.642,598.61,428,596.258,428,592s-5.358-6.61-11.563-9.334c-2.745-1.207-7.858-3.451-8.346-4.589,0.047-1.375,4.346-5.2,6.655-7.252,4.979-4.427,9.278-8.252,7.993-12.206-1.3-4.02-7.1-4.593-13.807-5.258-3.014-.3-8.625-0.854-9.441-1.8-0.361-1.318,2.514-6.246,4.059-8.893,3.373-5.781,6.287-10.773,3.826-14.156s-8.139-2.157-14.7-.722c-2.976.651-8.515,1.869-9.591,1.2-0.739-1.143.474-6.686,1.126-9.665,1.435-6.559,2.674-12.224-.722-14.7-3.378-2.458-8.374.452-14.157,3.825-2.646,1.544-7.578,4.4-8.8,4.106-1.043-.863-1.6-6.474-1.9-9.489-0.665-6.708-1.239-12.5-5.259-13.807-3.949-1.285-7.777,3.014-12.206,7.994-2.055,2.309-5.877,6.608-7.148,6.674-1.243-.507-3.487-5.619-4.692-8.366C326.61,489.359,324.258,484,320,484s-6.61,5.358-9.333,11.562c-1.206,2.747-3.45,7.86-4.589,8.349-1.375-.049-5.2-4.346-7.25-6.655-4.429-4.981-8.264-9.281-12.208-7.995-4.02,1.3-4.592,7.1-5.257,13.807-0.3,3.014-.855,8.625-1.805,9.439-1.3.368-6.245-2.513-8.893-4.057-5.781-3.374-10.774-6.282-14.156-3.825s-2.156,8.136-.721,14.7c0.652,2.978,1.865,8.521,1.2,9.591-1.138.741-6.686-.474-9.665-1.126-6.561-1.436-12.221-2.674-14.695.722s0.452,8.375,3.825,14.156c1.544,2.647,4.419,7.575,4.105,8.8-0.863,1.042-6.474,1.6-9.487,1.9-6.709.664-12.5,1.238-13.808,5.258-1.283,3.956,3.016,7.779,7.994,12.207,2.31,2.054,6.607,5.876,6.675,7.147-0.507,1.242-5.621,3.486-8.368,4.692C217.358,585.39,212,587.743,212,592s5.358,6.609,11.562,9.333c2.747,1.206,7.861,3.45,8.349,4.588-0.047,1.375-4.346,5.2-6.656,7.252-4.978,4.427-9.277,8.251-7.994,12.207,1.305,4.019,7.1,4.593,13.806,5.257,3.015,0.3,8.626.854,9.442,1.8,0.361,1.318-2.514,6.246-4.058,8.892-3.373,5.781-6.287,10.774-3.825,14.155,2.47,3.4,8.137,2.157,14.695.724,2.976-.651,8.517-1.868,9.591-1.2,0.739,1.142-.474,6.686-1.126,9.664-1.435,6.559-2.674,12.224.722,14.7,3.379,2.461,8.376-.451,14.157-3.825,2.646-1.545,7.571-4.4,8.8-4.106,1.043,0.862,1.6,6.475,1.9,9.489,0.665,6.708,1.237,12.5,5.257,13.807,3.945,1.277,7.779-3.015,12.208-8,2.053-2.309,5.875-6.607,7.146-6.674,1.243,0.507,3.487,5.62,4.693,8.367C313.39,694.642,315.743,700,320,700s6.61-5.359,9.334-11.563c1.2-2.746,3.449-7.859,4.586-8.348,1.377,0.049,5.2,4.347,7.254,6.656,4.429,4.979,8.256,9.271,12.206,7.994,4.02-1.305,4.594-7.1,5.259-13.807,0.3-3.014.853-8.625,1.805-9.439,1.313-.35,6.245,2.513,8.891,4.057,5.78,3.373,10.773,6.29,14.156,3.826s2.156-8.138.721-14.7c-0.65-2.978-1.863-8.521-1.2-9.591,1.141-.737,6.688.475,9.665,1.127,6.559,1.436,12.22,2.673,14.7-.723s-0.452-8.375-3.825-14.156c-1.544-2.647-4.419-7.575-4.1-8.8,0.863-1.043,6.474-1.6,9.488-1.9,6.709-.664,12.5-1.238,13.807-5.257,1.285-3.955-3.014-7.779-7.993-12.207-2.309-2.053-6.608-5.876-6.675-7.149C408.579,604.784,413.692,602.54,416.437,601.334Zm-5,15.563c2.181,1.938,6.178,5.494,6.52,6.942-1.114,1.01-6.551,1.548-9.514,1.842-6.266.621-11.677,1.157-13.4,4.54-1.747,3.419,1.013,8.15,4.209,13.626,1.484,2.542,4.2,7.2,4.063,8.69-1.366.6-6.673-.557-9.566-1.189-6.174-1.352-11.511-2.521-14.213.184s-1.535,8.036-.184,14.211c0.632,2.893,1.793,8.2,1.19,9.567-1.416.162-6.148-2.577-8.69-4.063-5.475-3.195-10.2-5.959-13.624-4.209-3.384,1.727-3.921,7.138-4.54,13.4-0.294,2.964-.832,8.4-1.843,9.514-1.448-.342-5-4.34-6.944-6.52-4.23-4.759-7.856-8.865-11.708-8.271-3.725.587-5.9,5.538-8.414,11.271-1.217,2.77-3.455,7.869-4.773,8.552-1.318-.684-3.555-5.781-4.771-8.551-2.518-5.734-4.691-10.685-8.418-11.272a4.966,4.966,0,0,0-.747-0.058c-3.552,0-7,3.881-10.96,8.328-1.939,2.181-5.494,6.179-6.943,6.522-1.009-1.115-1.547-6.55-1.841-9.513-0.621-6.266-1.156-11.678-4.542-13.406-3.42-1.749-8.149,1.013-13.624,4.209-2.544,1.486-7.25,4.223-8.692,4.064-0.6-1.372.558-6.674,1.191-9.566,1.35-6.177,2.518-11.51-.185-14.213s-8.035-1.537-14.212-.184c-2.89.633-8.2,1.8-9.565,1.19-0.141-1.487,2.579-6.149,4.062-8.691,3.2-5.476,5.957-10.206,4.21-13.625-1.727-3.384-7.138-3.92-13.4-4.54-2.963-.294-8.4-0.832-9.514-1.841,0.343-1.449,4.341-5,6.522-6.944,4.759-4.232,8.869-7.889,8.269-11.707-0.586-3.726-5.537-5.9-11.271-8.417-2.771-1.216-7.868-3.453-8.552-4.771,0.684-1.319,5.781-3.557,8.552-4.773,5.734-2.517,10.685-4.691,11.271-8.416,0.6-3.819-3.51-7.475-8.269-11.707-2.181-1.94-6.179-5.5-6.522-6.944,1.115-1.009,6.551-1.548,9.515-1.841,6.265-.621,11.676-1.157,13.4-4.541,1.747-3.419-1.013-8.15-4.21-13.626-1.483-2.542-4.2-7.2-4.062-8.69,1.364-.6,6.673.556,9.566,1.189,6.174,1.353,11.511,2.52,14.212-.184s1.536-8.036.185-14.213c-0.632-2.891-1.793-8.193-1.19-9.564,1.443-.146,6.148,2.578,8.69,4.062,5.475,3.195,10.2,5.954,13.625,4.21,3.385-1.728,3.92-7.139,4.541-13.4,0.294-2.964.832-8.4,1.841-9.514,1.448,0.343,5,4.34,6.943,6.521,4.235,4.758,7.865,8.867,11.709,8.27,3.725-.586,5.9-5.538,8.416-11.271,1.216-2.771,3.453-7.868,4.771-8.552,1.318,0.683,3.556,5.782,4.773,8.552,2.516,5.734,4.689,10.685,8.416,11.271,3.791,0.591,7.472-3.511,11.706-8.271,1.94-2.18,5.5-6.178,6.944-6.52,1.011,1.114,1.549,6.55,1.843,9.514,0.619,6.265,1.156,11.677,4.539,13.4,3.423,1.748,8.15-1.013,13.625-4.209,2.544-1.485,7.213-4.205,8.692-4.063,0.6,1.371-.558,6.673-1.191,9.565-1.351,6.177-2.518,11.51.185,14.213s8.034,1.535,14.212.185c2.892-.633,8.2-1.791,9.566-1.191,0.141,1.488-2.58,6.149-4.062,8.691-3.2,5.476-5.958,10.206-4.211,13.626,1.727,3.383,7.138,3.919,13.4,4.54,2.963,0.293,8.4.832,9.514,1.841-0.342,1.448-4.339,5-6.52,6.942-4.76,4.234-8.871,7.89-8.269,11.708,0.584,3.726,5.536,5.9,11.269,8.417,2.771,1.216,7.868,3.454,8.552,4.773-0.684,1.317-5.781,3.555-8.552,4.771-5.733,2.517-10.685,4.691-11.269,8.417C402.564,609.007,406.675,612.664,411.435,616.9Z" transform="translate(-8 -337)"/>
        <path id="_SEEING_IS_BELIEVING" data-name=" SEEING IS BELIEVING" class="cls-3" d="M97.628,544.6a11.152,11.152,0,0,0,3.032,3.677,8.868,8.868,0,0,0,3.961,1.8q4.271,0.738,8.222-2.874a17.117,17.117,0,0,0,2.792-3.323,43.292,43.292,0,0,0,2.8-5.443,9.88,9.88,0,0,1,1.735-2.88,1.976,1.976,0,0,1,1.79-.67,2.045,2.045,0,0,1,1.519,1.513,6.847,6.847,0,0,1,.21,3.3,11.275,11.275,0,0,1-1.512,4.265,6.884,6.884,0,0,1-2.671,2.732,34.317,34.317,0,0,0-3.754,2.042,2.665,2.665,0,0,0-1.21,1.776,2.2,2.2,0,0,0,.532,1.8,2.719,2.719,0,0,0,1.7.837,13.623,13.623,0,0,0,5.171-.153,6.479,6.479,0,0,0,3.672-1.717,17.88,17.88,0,0,0,2.483-5.143,37.448,37.448,0,0,0,1.744-7.038q1.075-7.614-1.568-12.91a10.332,10.332,0,0,0-7.7-6.059q-5.781-1-9.713,5.253a62.986,62.986,0,0,0-3.128,6.663q-1.629,3.878-3.717,3.516a2.113,2.113,0,0,1-1.578-1.183,4.066,4.066,0,0,1-.312-2.486,9.568,9.568,0,0,1,3.572-5.8,28.508,28.508,0,0,0,2.691-2.525,3.367,3.367,0,0,0,.628-1.658,3,3,0,0,0-.619-2.323,3.3,3.3,0,0,0-2.141-1.28,7.932,7.932,0,0,0-5.126,1.139q-2.823,1.539-3.074,3.316a2.847,2.847,0,0,0,.017.927,8.921,8.921,0,0,1,.207,1.666,3.392,3.392,0,0,1-.264.824,28.093,28.093,0,0,0-2.236,6.953A18.045,18.045,0,0,0,97.628,544.6h0Zm3.657-37.925a2.584,2.584,0,0,0,.346,1.563,2.277,2.277,0,0,0,1.148,1,1.676,1.676,0,0,0,2.2-.755,5.574,5.574,0,0,1,.843-1.093,1.619,1.619,0,0,1,.82-0.3q2.7-.3,11.529,3.185a46.265,46.265,0,0,1,9.039,4.51,3.635,3.635,0,0,1,1.1,1.075,3.171,3.171,0,0,1,.368,1.415,5.77,5.77,0,0,0,.306,1.689,1.5,1.5,0,0,0,.862.682,1.709,1.709,0,0,0,1.681-.134,3.314,3.314,0,0,0,1.16-1.795l6.925-21.447a32.164,32.164,0,0,1,1.74-4.189,10.24,10.24,0,0,0,.586-1.337,1.79,1.79,0,0,0,.047-1.065,5.684,5.684,0,0,0-.73-1.372,19.065,19.065,0,0,0-3.038-3.367,11.477,11.477,0,0,0-3.178-2.139,3.266,3.266,0,0,0-2.317-.131,2.131,2.131,0,0,0-1.4,1.428,2.5,2.5,0,0,0-.02,1.66,7,7,0,0,0,1.371,1.982,7.93,7.93,0,0,1,2.178,4.4,15.222,15.222,0,0,1-.966,6.064,16.393,16.393,0,0,1-1.394,3.4,1.492,1.492,0,0,1-1.353.877,14.013,14.013,0,0,1-2.363-.549q-1.757-.507-2.832-0.932a5.531,5.531,0,0,1-2.278-1.371,1.9,1.9,0,0,1-.149-1.812q0.956-2.96,3.662-2.318a3.794,3.794,0,0,0,1.821.149,1.446,1.446,0,0,0,.785-1.031,2.511,2.511,0,0,0-.589-2.571,14.217,14.217,0,0,0-5.523-3.578,17.764,17.764,0,0,0-3.629-1.02,6.111,6.111,0,0,0-2.634-.028,2.193,2.193,0,0,0-1.452,2.82,2.242,2.242,0,0,0,.633,1.035,10.552,10.552,0,0,0,1.7,1.084,2.488,2.488,0,0,1,1.233,1.172,2.6,2.6,0,0,1-.1,1.7,6.2,6.2,0,0,1-1.189,2.524,2.079,2.079,0,0,1-1.867-.167q-3.475-1.373-4.3-1.77a3.248,3.248,0,0,1-1.222-.925q-0.733-1,.205-3.911a21.747,21.747,0,0,1,2.324-5.4,5.127,5.127,0,0,1,2.957-2.011,5.8,5.8,0,0,0,1.788-.706,2.319,2.319,0,0,0,.729-1.18,2.591,2.591,0,0,0-.241-2.249,4.166,4.166,0,0,0-2.119-1.621,8.063,8.063,0,0,0-5.571-.318,2.842,2.842,0,0,0-2.032,1.822,3.809,3.809,0,0,0-.132.888,21.4,21.4,0,0,1-.533,3.768q-0.435,1.868-1.709,5.812l-4.2,13a23.557,23.557,0,0,0-1.027,3.9h0Zm14.667-41.845a2.633,2.633,0,0,0,.056,1.608,2.418,2.418,0,0,0,.945,1.23,1.642,1.642,0,0,0,2.3-.251,5.167,5.167,0,0,1,1.024-.884,1.565,1.565,0,0,1,.858-0.116q2.7,0.3,10.718,5.677a48.727,48.727,0,0,1,8.037,6.423,3.831,3.831,0,0,1,.88,1.3,3.219,3.219,0,0,1,.1,1.467,5.882,5.882,0,0,0-.007,1.723,1.591,1.591,0,0,0,.722.86,1.713,1.713,0,0,0,1.671.241,3.129,3.129,0,0,0,1.461-1.5l10.674-19.476a30.643,30.643,0,0,1,2.464-3.719,9.752,9.752,0,0,0,.817-1.179,1.775,1.775,0,0,0,.239-1.033,5.914,5.914,0,0,0-.467-1.506,20.172,20.172,0,0,0-2.366-3.973,12.2,12.2,0,0,0-2.725-2.8,3.329,3.329,0,0,0-2.246-.642,2.017,2.017,0,0,0-1.633,1.089,2.472,2.472,0,0,0-.321,1.621,7.377,7.377,0,0,0,.984,2.246,8.248,8.248,0,0,1,1.337,4.79,14.816,14.816,0,0,1-2.045,5.726,15.652,15.652,0,0,1-1.982,3.021,1.429,1.429,0,0,1-1.485.559,14.494,14.494,0,0,1-2.216-1.061q-1.629-.887-2.605-1.542a5.841,5.841,0,0,1-1.983-1.847,1.9,1.9,0,0,1,.182-1.81q1.473-2.686,4.008-1.458a3.885,3.885,0,0,0,1.758.55,1.368,1.368,0,0,0,.955-0.836,2.546,2.546,0,0,0-.111-2.649,15.081,15.081,0,0,0-4.762-4.731,18.5,18.5,0,0,0-3.37-1.8,6.192,6.192,0,0,0-2.576-.612,2.043,2.043,0,0,0-1.69,1.065,2.128,2.128,0,0,0-.243,1.376,2.353,2.353,0,0,0,.432,1.154,11.243,11.243,0,0,0,1.469,1.439,2.641,2.641,0,0,1,1,1.421,2.562,2.562,0,0,1-.405,1.645,5.906,5.906,0,0,1-1.622,2.21,2.122,2.122,0,0,1-1.8-.578q-3.157-2.115-3.894-2.688a3.457,3.457,0,0,1-1.03-1.177q-0.537-1.145.911-3.786a20.612,20.612,0,0,1,3.255-4.774,4.882,4.882,0,0,1,3.262-1.315,5.632,5.632,0,0,0,1.879-.3,2.2,2.2,0,0,0,.929-1,2.593,2.593,0,0,0,.171-2.256,4.407,4.407,0,0,0-1.782-2.058,8.211,8.211,0,0,0-5.4-1.547,2.693,2.693,0,0,0-2.321,1.334,3.7,3.7,0,0,0-.29.841,20.862,20.862,0,0,1-1.206,3.573q-0.765,1.733-2.728,5.315l-6.47,11.805a22.768,22.768,0,0,0-1.714,3.593h0Zm23.2-38.771a13.49,13.49,0,0,0-1.469,3.785,2.212,2.212,0,0,0,.611,2.042,1.68,1.68,0,0,0,1.07.516,5.347,5.347,0,0,0,1.7-.339,3.276,3.276,0,0,1,2.423-.078q1.738,0.724,6.468,5.187A95.72,95.72,0,0,1,158.6,446a3.383,3.383,0,0,1,.6,2.614,3.086,3.086,0,0,0,.542,2.772q2.29,2.162,7.43-4.5a37.84,37.84,0,0,0,4.5-7.156q1.368-3.015-.109-4.41a2.124,2.124,0,0,0-2.648-.168,4.125,4.125,0,0,1-1.415.447,2.179,2.179,0,0,1-1.16-.336q-1.981-1.2-9.037-7.858a51.822,51.822,0,0,1-5.387-5.6,3.745,3.745,0,0,1-.912-3,8.619,8.619,0,0,0,.3-2.14,1.7,1.7,0,0,0-.591-1.034q-1.625-1.535-4.268.773a28.344,28.344,0,0,0-3.759,4.044,34.864,34.864,0,0,0-3.526,5.6h0Zm22.528-26.7a9.494,9.494,0,0,0-2.382,1.72,40.865,40.865,0,0,0-3.562,3.5q-2.718,3.326-1.242,5.321a1.856,1.856,0,0,0,1.113.763,4.255,4.255,0,0,0,1.836-.169,3.618,3.618,0,0,1,1.667-.12,3.972,3.972,0,0,1,1.51.855,43.382,43.382,0,0,1,6.344,7.307,81.873,81.873,0,0,1,5.383,8,3.74,3.74,0,0,1,.45,3.027,7.79,7.79,0,0,0-.478,2.027,2.24,2.24,0,0,0,.521,1.3,2.514,2.514,0,0,0,2.945.823,11.827,11.827,0,0,0,4.485-2.823q5.621-5.082,3.485-7.972a2.238,2.238,0,0,0-2.582-.65,2.675,2.675,0,0,1-2.347-.48,19.724,19.724,0,0,1-3.211-3.687q-2.6-3.513-1.451-4.55a3.9,3.9,0,0,1,2.8-.587l19.311,0.961a11.949,11.949,0,0,0,2.323-.019,2.458,2.458,0,0,0,1.2-.639q1.335-1.207.352-3.683a27.649,27.649,0,0,0-3.51-5.638q-2.016-2.685-3.169-4.245l-5.011-6.778a21.234,21.234,0,0,1-3.316-5.674,2.353,2.353,0,0,1-.1-0.947,4.59,4.59,0,0,1,.417-1.175,3.084,3.084,0,0,0-.1-3.312q-1.2-1.621-3.359-.64a19.706,19.706,0,0,0-4.206,3.178,23.143,23.143,0,0,0-2.93,3q-1.792,2.454-.5,4.2a2.211,2.211,0,0,0,1.154.882,3.272,3.272,0,0,0,1.657-.093,2.553,2.553,0,0,1,2.245.364,16.742,16.742,0,0,1,2.925,3.321q1.707,2.308.729,3.192-0.584.526-2.837,0.448l-16.064-.6A6.161,6.161,0,0,0,161.682,399.355ZM199.8,371.587a20.006,20.006,0,0,0-3.362,9.991,19.267,19.267,0,0,0,1.631,9.435,18.362,18.362,0,0,0,5.416,7,15.774,15.774,0,0,0,9.349,3.453,18.3,18.3,0,0,0,9.822-2.433,19.514,19.514,0,0,0,5.094-4.069A16.982,16.982,0,0,0,231,389.72a15.407,15.407,0,0,0,.739-8.41,3.867,3.867,0,0,1-.1-1.494,2.223,2.223,0,0,1,.818-0.922,2.777,2.777,0,0,0,1.066-1.541,2.6,2.6,0,0,0-.141-1.8q-0.972-2.135-3.707-1.633a25.977,25.977,0,0,0-12.178,6.872q-2,2.169-1.1,4.159a2.326,2.326,0,0,0,1.377,1.323,2.2,2.2,0,0,0,1.851-.2,13.791,13.791,0,0,1,1.263-.659,1.086,1.086,0,0,1,.549-0.02,1.957,1.957,0,0,1,1.35,1.293,3.584,3.584,0,0,1,.24,2.528,2.992,2.992,0,0,1-1.478,1.86,5.678,5.678,0,0,1-3.153.658,8.09,8.09,0,0,1-3.451-1.01,17.448,17.448,0,0,1-7.091-8.288,11.633,11.633,0,0,1-1.137-7.065,6.667,6.667,0,0,1,3.441-4.773q3.1-1.727,6.962.183a19.468,19.468,0,0,0,2.827,1.252,4.186,4.186,0,0,0,2.931-.37A3.736,3.736,0,0,0,224.789,369a6.222,6.222,0,0,0-.575-3.86,9.49,9.49,0,0,0-4.312-4.574,3.115,3.115,0,0,0-3.042-.29,3.32,3.32,0,0,0-.856.687,8.4,8.4,0,0,1-1.571,1.566,6.37,6.37,0,0,1-1.725.45,18.353,18.353,0,0,0-5.762,2.1,20.021,20.021,0,0,0-7.151,6.508h0Zm47.846-23.178a11.434,11.434,0,0,0-3.158,2.185,2.225,2.225,0,0,0-.55,2.063,1.987,1.987,0,0,0,.613,1.1,5.626,5.626,0,0,0,1.571.792,3.6,3.6,0,0,1,2.031,1.463q1.056,1.692,2.642,8.339a110.736,110.736,0,0,1,2.551,12.7,3.33,3.33,0,0,1-.854,2.526,3.03,3.03,0,0,0-.983,2.62q0.768,3.22,8.423.987a31.863,31.863,0,0,0,7.386-3.043q2.679-1.614,2.184-3.692a2.366,2.366,0,0,0-2.089-1.807,4.163,4.163,0,0,1-1.393-.524,2.557,2.557,0,0,1-.781-1.008q-1.01-2.234-3.375-12.153a59.532,59.532,0,0,1-1.542-7.993,3.745,3.745,0,0,1,.8-3.037,7.642,7.642,0,0,0,1.346-1.573,1.824,1.824,0,0,0,.047-1.222q-0.544-2.285-3.9-2.055a24.556,24.556,0,0,0-5.173.953,29.44,29.44,0,0,0-5.786,2.382h0Zm24.12-3.4a11.8,11.8,0,0,0-2.3,4.279,11.163,11.163,0,0,0,4.483,12.574,15.4,15.4,0,0,0,3.689,1.985,34.793,34.793,0,0,0,5.523,1.37,8.23,8.23,0,0,1,3,1,2.323,2.323,0,0,1,1.1,1.7,2.271,2.271,0,0,1-.865,2.048,5.335,5.335,0,0,1-2.792,1.184,8.7,8.7,0,0,1-4.129-.356,6.5,6.5,0,0,1-3.143-2.029,38.077,38.077,0,0,0-2.861-3.376,2.277,2.277,0,0,0-1.888-.761,1.881,1.881,0,0,0-1.406,1.089,3.422,3.422,0,0,0-.228,2.043,17.894,17.894,0,0,0,1.64,5.425q1.293,2.714,2.556,3.382a14.308,14.308,0,0,0,5.173,1.128,28.312,28.312,0,0,0,6.6-.208q6.9-1.083,10.709-5.424a12.062,12.062,0,0,0,3-9.91q-0.822-6.406-7.377-8.742a49.76,49.76,0,0,0-6.675-1.367q-3.828-.592-4.126-2.906a2.493,2.493,0,0,1,.564-2.014,3.233,3.233,0,0,1,2.059-1.055q2.79-.438,6.057,2.087a27.308,27.308,0,0,0,2.969,2.111,2.632,2.632,0,0,0,1.617.18,2.528,2.528,0,0,0,1.828-1.331,4.056,4.056,0,0,0,.483-2.639,9.886,9.886,0,0,0-2.48-5.09q-2.154-2.538-3.764-2.285a2.2,2.2,0,0,0-.8.288,6.993,6.993,0,0,1-1.381.705,2.607,2.607,0,0,1-.79-0.039,21.481,21.481,0,0,0-6.666-.337,14.545,14.545,0,0,0-9.376,5.3h0Zm59.935,29.41q3.513,0.291,4.411.332,6.6,0.3,10.128-3.764a10.98,10.98,0,0,0,2.807-6.943,8.725,8.725,0,0,0-1.474-5.522,9.676,9.676,0,0,0-3.506-3.141,1.381,1.381,0,0,1-.978-1.173,2,2,0,0,1,.9-1.33,7.178,7.178,0,0,0,2-2.719,9.586,9.586,0,0,0,.836-3.578,7.842,7.842,0,0,0-2.159-6.064,8.447,8.447,0,0,0-3.362-2.1,19.172,19.172,0,0,0-5.183-.811q-1.359-.062-3.035-0.083-5.344-.079-7.164-0.161-2.475-.111-4.606-0.314-1.284-.139-2.108-0.176a3.856,3.856,0,0,0-2.491.641,2.328,2.328,0,0,0-1.029,1.889,2.4,2.4,0,0,0,1.52,2.272,3.258,3.258,0,0,1,1.7,1.783,14.76,14.76,0,0,1,.223,4.19q-0.315,8.559-.991,14.388a43.667,43.667,0,0,1-.762,4.871,2.808,2.808,0,0,1-1.033,1.634,8.432,8.432,0,0,0-1.578,1.273,1.939,1.939,0,0,0-.358,1.166,2.7,2.7,0,0,0,.776,2.024,3.306,3.306,0,0,0,2.323.938q0.606,0.027,2.019-.044,1.581-.036,5,0.064l3.252,0.119q0.727,0.06,3.925.338h0Zm-0.783-31.254a1.266,1.266,0,0,1,1.2-.47,2.8,2.8,0,0,1,2.424,1.493,7.347,7.347,0,0,1,.73,3.943,6.761,6.761,0,0,1-.99,3.786,2.973,2.973,0,0,1-2.689,1.1,1.121,1.121,0,0,1-1.036-.584,4.056,4.056,0,0,1-.235-1.865l0.2-5.528A3.83,3.83,0,0,1,330.913,343.165Zm-0.485,15.5a1.807,1.807,0,0,1,1.5-.443q4.125,0.185,3.906,6.142-0.175,4.777-3.864,4.611a1.832,1.832,0,0,1-1.826-1.238,15.125,15.125,0,0,1-.289-4.69l0.094-2.549A3.035,3.035,0,0,1,330.428,358.665Zm27.993-18.791a2.062,2.062,0,0,0-1.344.615,2.537,2.537,0,0,0-.716,1.406,2.011,2.011,0,0,0,1.008,2.3,5.106,5.106,0,0,1,1.1.756,1.974,1.974,0,0,1,.4.851q0.678,2.908-1.1,13.085a57.812,57.812,0,0,1-2.664,10.563,3.891,3.891,0,0,1-.795,1.361,2.537,2.537,0,0,1-1.209.617,4.5,4.5,0,0,0-1.463.59,1.687,1.687,0,0,0-.48,1.046,2.232,2.232,0,0,0,.374,1.817,2.907,2.907,0,0,0,1.78,1l20.218,4.327a25.778,25.778,0,0,1,4.008,1.268,8.2,8.2,0,0,0,1.283.439,1.346,1.346,0,0,0,.959-0.11,5.11,5.11,0,0,0,1.116-1,19.87,19.87,0,0,0,2.55-3.831,13.683,13.683,0,0,0,1.432-3.8,4.355,4.355,0,0,0-.234-2.553,2.086,2.086,0,0,0-1.488-1.317,1.892,1.892,0,0,0-1.488.229,6.755,6.755,0,0,0-1.563,1.8,7.044,7.044,0,0,1-3.6,3.045,11.371,11.371,0,0,1-5.566-.138,13.056,13.056,0,0,1-3.249-1.01,1.653,1.653,0,0,1-.989-1.346,18.621,18.621,0,0,1,.133-2.666q0.188-2,.4-3.237a6.639,6.639,0,0,1,.88-2.7,1.477,1.477,0,0,1,1.6-.438q2.79,0.6,2.626,3.653a5.083,5.083,0,0,0,.142,2.013,1.336,1.336,0,0,0,1.04.7,2.034,2.034,0,0,0,2.209-1.032,16.948,16.948,0,0,0,2.363-6.579,23.484,23.484,0,0,0,.363-4.121,8.176,8.176,0,0,0-.374-2.884,2.132,2.132,0,0,0-1.489-1.385,1.623,1.623,0,0,0-1.251.224,2.1,2.1,0,0,0-.829.849,12.585,12.585,0,0,0-.712,2.022,2.683,2.683,0,0,1-.861,1.525,1.96,1.96,0,0,1-1.535.15,5.133,5.133,0,0,1-2.437-.918,2.763,2.763,0,0,1-.133-2.066q0.7-4.008.932-4.97a3.744,3.744,0,0,1,.642-1.477q0.784-.954,3.527-0.367a17.49,17.49,0,0,1,5.177,1.724,5.593,5.593,0,0,1,2.245,2.928,7.063,7.063,0,0,0,.9,1.848,2.22,2.22,0,0,0,3.139.015,4.762,4.762,0,0,0,1.129-2.562,10.754,10.754,0,0,0-.559-6.137,2.864,2.864,0,0,0-1.935-1.946,2.828,2.828,0,0,0-.815-0.01,15.965,15.965,0,0,1-3.448-.013q-1.734-.193-5.454-0.99l-12.254-2.622a17.98,17.98,0,0,0-3.642-.534h0Zm50.764,21.216a1.952,1.952,0,0,1,1.579-1.019,6.835,6.835,0,0,0,2.195-.339,1.728,1.728,0,0,0,.786-1.083q0.678-2.043-1.923-3.87a35.846,35.846,0,0,0-6.445-3.186,20.832,20.832,0,0,0-6.568-1.721q-3.077-.161-3.687,1.679a2.1,2.1,0,0,0,.253,1.733,9.062,9.062,0,0,0,1.606,1.71,2.177,2.177,0,0,1,.841,1.557,9.409,9.409,0,0,1-.631,2.877q-0.679,2.127-1.954,6.358-1.334,4.409-2.1,6.728a33.841,33.841,0,0,1-2.3,5.9,3.039,3.039,0,0,1-2.3,1.241,6.291,6.291,0,0,0-1.815.365,1.5,1.5,0,0,0-.655.922,2.159,2.159,0,0,0,.358,2.118,5.021,5.021,0,0,0,2.078,1.3l15.936,6.465,4.835,2.734a1.9,1.9,0,0,0,1.346.074,5.81,5.81,0,0,0,1.677-1.078,13.011,13.011,0,0,0,4.314-5.831,6.179,6.179,0,0,0,.269-3.423,2.662,2.662,0,0,0-1.574-2q-1.209-.49-2.094,1.01a6.662,6.662,0,0,1-3.4,3.082,6.443,6.443,0,0,1-4.521-.4q-2.418-.981-2.726-2.622-0.24-1.385,1.057-5.292l3.839-11.573A27.454,27.454,0,0,1,409.185,361.09Zm26.092,5.189a10.53,10.53,0,0,0-3.654-.8,1.862,1.862,0,0,0-1.679,1.085,2.116,2.116,0,0,0-.234,1.265,6.9,6.9,0,0,0,.653,1.767,4.325,4.325,0,0,1,.573,2.605q-0.279,2.032-3.243,8.075a103.806,103.806,0,0,1-6.01,11.182,2.753,2.753,0,0,1-2.188,1.193,2.511,2.511,0,0,0-2.338,1.164q-1.437,2.927,5.522,7.1a32.1,32.1,0,0,0,7.266,3.381q2.95,0.855,3.878-1.034a2.751,2.751,0,0,0-.4-2.9,5.135,5.135,0,0,1-.69-1.438,2.883,2.883,0,0,1,.056-1.325q0.648-2.391,5.072-11.409a55.608,55.608,0,0,1,3.83-6.991,3.112,3.112,0,0,1,2.461-1.609,6.428,6.428,0,0,0,1.954-.126,1.577,1.577,0,0,0,.792-0.854q1.018-2.077-1.572-4.456a26.907,26.907,0,0,0-4.357-3.226,29.741,29.741,0,0,0-5.69-2.649h0Zm22.394,14.185a1.962,1.962,0,0,0-1.449-.134,2.219,2.219,0,0,0-1.219.887,2.108,2.108,0,0,0-.054,2.551,5.862,5.862,0,0,1,.669,1.231,2.1,2.1,0,0,1,0,.956q-0.6,2.93-6.4,11.075a51.681,51.681,0,0,1-6.742,8.04,3.385,3.385,0,0,1-1.271.808,2.39,2.39,0,0,1-1.329-.064,4.368,4.368,0,0,0-1.546-.217,1.484,1.484,0,0,0-.859.687,2.223,2.223,0,0,0-.42,1.805,3.318,3.318,0,0,0,1.17,1.787L454.4,423.962a29.211,29.211,0,0,1,3.038,3.156,9.368,9.368,0,0,0,.959,1.041,1.4,1.4,0,0,0,.9.388,4.581,4.581,0,0,0,1.409-.329,17.325,17.325,0,0,0,3.853-2.114,12.053,12.053,0,0,0,2.845-2.65,4.225,4.225,0,0,0,.849-2.388,2.351,2.351,0,0,0-.778-1.925,1.936,1.936,0,0,0-1.416-.549,5.941,5.941,0,0,0-2.136.807,6.36,6.36,0,0,1-4.461.884,12.21,12.21,0,0,1-4.891-2.941,14.828,14.828,0,0,1-2.47-2.544,1.808,1.808,0,0,1-.321-1.7A17.36,17.36,0,0,1,453,410.8q0.993-1.68,1.7-2.672a5.894,5.894,0,0,1,1.9-1.953,1.468,1.468,0,0,1,1.6.42,3.38,3.38,0,0,1,.822,4.578,4.89,4.89,0,0,0-.707,1.862,1.514,1.514,0,0,0,.634,1.15,1.954,1.954,0,0,0,2.391.2,14.951,14.951,0,0,0,4.825-4.652,21.649,21.649,0,0,0,2.029-3.48,8.024,8.024,0,0,0,.862-2.752,2.409,2.409,0,0,0-.75-1.986,1.664,1.664,0,0,0-1.206-.434,1.865,1.865,0,0,0-1.088.334,11.2,11.2,0,0,0-1.471,1.437,2.351,2.351,0,0,1-1.4.921,2.039,2.039,0,0,1-1.427-.644,5.848,5.848,0,0,1-1.786-2.05,2.674,2.674,0,0,1,.737-1.9q2.283-3.207,2.887-3.947a3.291,3.291,0,0,1,1.182-.987q1.092-.45,3.287,1.46a19.834,19.834,0,0,1,3.889,4.154,6.2,6.2,0,0,1,.783,3.741,7.542,7.542,0,0,0,.036,2.1,2.307,2.307,0,0,0,.78,1.141,2,2,0,0,0,2,.462,4.181,4.181,0,0,0,2.064-1.706,10.393,10.393,0,0,0,2.045-5.739,3.219,3.219,0,0,0-.914-2.71,3.084,3.084,0,0,0-.72-0.421,17.092,17.092,0,0,1-3.06-1.758q-1.463-1.05-4.439-3.642l-9.808-8.537a19.711,19.711,0,0,0-3.017-2.318h0Zm45.609,56.53a4.687,4.687,0,0,1,1.625,1.249q1.572,1.55,2.928.245a2.577,2.577,0,0,0,.56-2.869,18.687,18.687,0,0,0-3.11-5q-5.082-6.465-7.263-4.369a2.293,2.293,0,0,0-.436,2.27,2.01,2.01,0,0,1-.314,1.975,3.315,3.315,0,0,1-1.1.591q-0.784.291-5.232,1.756a15.984,15.984,0,0,1-3.5.872,1.721,1.721,0,0,1-1.545-.614q-0.541-.69.165-2.329l3.176-7.5a4.719,4.719,0,0,1,.868-1.475,1.6,1.6,0,0,1,1.572-.088,2.212,2.212,0,0,0,2.258-.321q1.191-1.145.23-3.637a28.664,28.664,0,0,0-4.212-6.626,21.449,21.449,0,0,0-5.556-5.369q-2.434-1.4-3.845-.04a1.926,1.926,0,0,0-.4,2.52,4.16,4.16,0,0,1,.582,2.234,10.661,10.661,0,0,1-.917,3.07l-10,24.165a12.073,12.073,0,0,0-.759,2.207,4.254,4.254,0,0,0,.038,1.582,4.883,4.883,0,0,0,.985,2.113,3.406,3.406,0,0,0,2.125,1.373,8.326,8.326,0,0,0,3.447-.466L500,437.445a7.163,7.163,0,0,1,3.282-.451h0Zm9.257,5.095a11.884,11.884,0,0,0-2.824-2.687,1.729,1.729,0,0,0-1.944.031,1.909,1.909,0,0,0-.767.975,7.105,7.105,0,0,0-.218,1.893,4.291,4.291,0,0,1-.66,2.579q-1.148,1.619-6.417,5.265a89.6,89.6,0,0,1-10.208,6.463,2.6,2.6,0,0,1-2.435-.152q-1.628-.9-2.554-0.26-2.553,1.765,1.647,9.188a37.24,37.24,0,0,0,4.82,6.9q2.19,2.349,3.836,1.21a2.67,2.67,0,0,0,.941-2.742,5.431,5.431,0,0,1,.039-1.627,2.669,2.669,0,0,1,.639-1.123q1.627-1.73,9.492-7.172a48.123,48.123,0,0,1,6.445-4,2.894,2.894,0,0,1,2.858-.061,6.846,6.846,0,0,0,1.758.954,1.393,1.393,0,0,0,1.069-.313q1.81-1.252.615-4.734a31.078,31.078,0,0,0-2.358-5.18,34.372,34.372,0,0,0-3.774-5.4h0Zm16.767,33.13a11.427,11.427,0,0,0-.74-3.038,45.781,45.781,0,0,0-1.9-4.829q-2.016-3.888-4.189-2.955a1.94,1.94,0,0,0-1,.934,5.612,5.612,0,0,0-.424,1.983,4.766,4.766,0,0,1-.413,1.79,4.382,4.382,0,0,1-1.2,1.323,39.352,39.352,0,0,1-8.249,4.4,69.047,69.047,0,0,1-8.548,3.18,2.864,2.864,0,0,1-2.742-.465,6.388,6.388,0,0,0-1.6-1.13,1.745,1.745,0,0,0-1.277.145A2.984,2.984,0,0,0,495.4,479.4a14.643,14.643,0,0,0,1.037,5.59q2.628,7.485,5.775,6.135,1.2-.516,1.358-2.513a3.314,3.314,0,0,1,1.14-2.319,17.939,17.939,0,0,1,4.165-2.235q3.825-1.641,4.362-.115a5.133,5.133,0,0,1-.363,3.123l-6.81,20.007a15.639,15.639,0,0,0-.7,2.448,3.1,3.1,0,0,0,.176,1.465q0.622,1.777,3.057,1.511a22.893,22.893,0,0,0,5.934-1.942q2.934-1.289,4.632-2.018l7.38-3.168q4.175-1.762,5.906-1.728a1.774,1.774,0,0,1,.846.184,3.97,3.97,0,0,1,.881.8q1.407,1.557,2.878.925,1.765-.759,1.591-3.334a23.66,23.66,0,0,0-1.429-5.407,25.655,25.655,0,0,0-1.668-4.008q-1.554-2.647-3.455-1.83a2.238,2.238,0,0,0-1.116.94,4.311,4.311,0,0,0-.434,1.77,3.194,3.194,0,0,1-1.008,2.248,15.2,15.2,0,0,1-3.762,2.047q-2.513,1.079-2.97-.223a6.044,6.044,0,0,1,.494-3.121l5.494-16.7A8.189,8.189,0,0,0,529.3,475.219Zm11.339,45.106a17.337,17.337,0,0,0-7.6-6.554,14.553,14.553,0,0,0-8.627-1.119,16.137,16.137,0,0,0-7.663,3.6,18.611,18.611,0,0,0-5.793,8.819,24.168,24.168,0,0,0-.858,11.091,22.909,22.909,0,0,0,1.975,6.6,16.684,16.684,0,0,0,3.539,5.011,12.092,12.092,0,0,0,7.03,3.31,2.931,2.931,0,0,1,1.318.349,2.373,2.373,0,0,1,.548,1.139,2.8,2.8,0,0,0,1.008,1.588,1.979,1.979,0,0,0,1.595.394q2.133-.383,2.525-3.418a29.32,29.32,0,0,0-.265-7.679,26.969,26.969,0,0,0-2-7.233q-1.267-2.766-3.256-2.409a2.23,2.23,0,0,0-1.555,1.054,2.884,2.884,0,0,0-.382,2.014q0.188,1.272.188,1.531a1.419,1.419,0,0,1-.148.584,1.886,1.886,0,0,1-1.521,1.035,2.736,2.736,0,0,1-2.252-.508,3.126,3.126,0,0,1-1.159-2.118,7.512,7.512,0,0,1,.381-3.524,9.85,9.85,0,0,1,1.91-3.335,15.8,15.8,0,0,1,9.282-4.983,8.818,8.818,0,0,1,6.434.927,6.8,6.8,0,0,1,3.08,5.066,9.21,9.21,0,0,1-2.253,7.287,22.439,22.439,0,0,0-1.931,2.6,5.527,5.527,0,0,0-.564,3.2,3.812,3.812,0,0,0,1.716,2.808,4.718,4.718,0,0,0,3.5.555,8.8,8.8,0,0,0,5.242-3.171,3.974,3.974,0,0,0,1.167-3.12,3.9,3.9,0,0,0-.335-1.109,9.444,9.444,0,0,1-.878-2.128,8.387,8.387,0,0,1,.132-1.956,23.974,23.974,0,0,0-.074-6.706,22.8,22.8,0,0,0-3.459-9.5h0Z" transform="translate(-8 -337)"/>
        <path id="WORK" class="cls-3" d="M55.057,621.755h5.359l4-20,4.159,20h5.359l6.959-29.6H74.814l-3.679,18.957L67.215,592.16H61.856l-3.919,18.957L54.1,592.16H47.938Zm27.961-14.8c0,9.279,3.6,15.358,10.878,15.358s10.878-6.079,10.878-15.358S101.175,591.6,93.9,591.6s-10.878,6.079-10.878,15.317v0.04Zm6.239,0c0-7.118,1.52-9.758,4.639-9.758s4.639,2.64,4.639,9.758-1.52,9.759-4.639,9.759-4.639-2.64-4.639-9.719v-0.04Zm20.4,14.8h6.079v-24h1.4a4.638,4.638,0,0,1,3.12.8,4.266,4.266,0,0,1,1.4,3.6,4.6,4.6,0,0,1-1.319,3.4,4.708,4.708,0,0,1-3,1.119c-0.48.04-.84,0.04-1.52,0.04l6.519,15.038h6.8l-5.6-11.8a7.966,7.966,0,0,0,3.479-3.88,10.916,10.916,0,0,0,.88-4.479,10.162,10.162,0,0,0-2.4-6.839c-1.28-1.519-3.96-2.6-8.159-2.6h-7.679v29.6Zm23.24,0h6.079v-13.6l6.8,13.6h7l-8.279-15.2,7.679-14.4h-6.6l-6.6,13.4v-13.4H132.9v29.6Z" transform="translate(-8 -337)"/>
        <path id="_2020" data-name="2020" class="cls-3" d="M488.684,623h18.573v-5.74H496.884a103.62,103.62,0,0,0,8.2-8.569,10.961,10.961,0,0,0,2.05-6.683c0-5.822-3.9-9.84-9.348-9.84a9.124,9.124,0,0,0-6.724,2.5c-1.681,1.681-2.706,4.264-2.706,7.831h6.232c0-3.444,1.763-4.1,3.157-4.1,1.476,0,2.993,1.148,2.993,3.485,0,1.845-.451,3.157-4.018,6.765-1.8,1.8-4.346,4.592-8.036,8.282V623Zm22.96-9.84c0,6.56,3.854,10.332,9.512,10.332s9.512-3.772,9.512-10.332V602.5c0-6.56-3.854-10.332-9.512-10.332s-9.512,3.772-9.512,10.332v10.66Zm5.822-10.25c0-3.485,1.517-5.084,3.69-5.084s3.69,1.6,3.69,5.084v9.84c0,3.485-1.517,5.084-3.69,5.084s-3.69-1.6-3.69-5.084v-9.84ZM535.1,623h18.573v-5.74H543.3a103.62,103.62,0,0,0,8.2-8.569,10.961,10.961,0,0,0,2.05-6.683c0-5.822-3.9-9.84-9.348-9.84a9.124,9.124,0,0,0-6.724,2.5c-1.681,1.681-2.706,4.264-2.706,7.831H541c0-3.444,1.763-4.1,3.157-4.1,1.476,0,2.993,1.148,2.993,3.485,0,1.845-.451,3.157-4.018,6.765-1.8,1.8-4.346,4.592-8.036,8.282V623Zm22.96-9.84c0,6.56,3.854,10.332,9.512,10.332s9.512-3.772,9.512-10.332V602.5c0-6.56-3.854-10.332-9.512-10.332s-9.512,3.772-9.512,10.332v10.66Zm5.822-10.25c0-3.485,1.517-5.084,3.69-5.084s3.69,1.6,3.69,5.084v9.84c0,3.485-1.517,5.084-3.69,5.084s-3.69-1.6-3.69-5.084v-9.84Z" transform="translate(-8 -337)"/>
        <path id="PORTFOLIO" class="cls-3" d="M105.354,779.9a2.587,2.587,0,0,1-1.477,1.864,12.144,12.144,0,0,0-2.637,1.617,2.188,2.188,0,0,0-.562,1.617q0,4.465,13.008,4.465a29.91,29.91,0,0,0,9.562-1.195q3.375-1.2,3.375-3.411,0-1.44-2.285-2.671a5.979,5.979,0,0,1-2.233-1.705,5.024,5.024,0,0,1-.615-2.514l-0.246-5.766v-0.211a0.968,0.968,0,0,1,1.02-1.16q0.351,0,1.793.106,2.706,0.246,4.57.246a19.7,19.7,0,0,0,12.516-4.043,13.906,13.906,0,0,0,5.484-11.5,13.61,13.61,0,0,0-7.84-12.938,21.811,21.811,0,0,0-10.266-2.355,36.338,36.338,0,0,0-3.726.211q-6.153.563-7.154,0.615t-6.838.088h-2.11q-3.341-.107-4.183-0.106a7.286,7.286,0,0,0-3.867.844,2.7,2.7,0,0,0-1.336,2.426q0,2.25,3.164,3.164,2.18,0.6,2.672,1.564a12.666,12.666,0,0,1,.492,4.553V772.2Q105.564,778.7,105.354,779.9Zm18.738-32.027a6.483,6.483,0,0,1,4.078,1.3q2.672,2.038,2.672,6.609,0,4.395-2.285,6.258a6.663,6.663,0,0,1-6.469.809,1.694,1.694,0,0,1-.6-1.653V749.239q0-1.371,2.6-1.371h0ZM165.4,741.61a24.4,24.4,0,0,0-11.355,8.367,24.126,24.126,0,0,0-4.746,14.766,24.6,24.6,0,0,0,3.691,13.184,23.445,23.445,0,0,0,10.512,9.246,27.757,27.757,0,0,0,11.637,2.531,30.117,30.117,0,0,0,9.246-1.477,25.724,25.724,0,0,0,12.129-7.98A22.458,22.458,0,0,0,202,765.411a25.223,25.223,0,0,0-2.777-11.25,26.591,26.591,0,0,0-7.418-9.211,25.232,25.232,0,0,0-15.785-5.168A29.537,29.537,0,0,0,165.4,741.61h0Zm10.829,9.563a11.389,11.389,0,0,1,3.093,3.375,31.923,31.923,0,0,1,3.551,8.4,34.321,34.321,0,0,1,1.371,9.176,8.079,8.079,0,0,1-1.635,5.273,5.283,5.283,0,0,1-4.306,2,5.985,5.985,0,0,1-3.252-1.019,8.726,8.726,0,0,1-2.69-2.742,41.215,41.215,0,0,1-4.078-9.264,31.624,31.624,0,0,1-1.617-9.193A8.124,8.124,0,0,1,168,752.509a5.326,5.326,0,0,1,4.676-2.637A6.623,6.623,0,0,1,176.229,751.173Zm55.388,18.879a10.985,10.985,0,0,1,2.057,4.711,71.136,71.136,0,0,0,2.2,7.664,14.291,14.291,0,0,0,2.268,4.078q2.952,3.621,9.808,3.621a19.55,19.55,0,0,0,8.086-1.371,5.826,5.826,0,0,0,2.18-1.74,3.633,3.633,0,0,0,.844-2.2,2.7,2.7,0,0,0-.457-1.529,2.116,2.116,0,0,0-1.125-.9,6.271,6.271,0,0,1-2.778-1.319,6.357,6.357,0,0,1-.914-3.006q-0.738-5.589-2.461-8.3a10.286,10.286,0,0,0-5.414-4.043q-1.722-.631-1.722-1.652a1.621,1.621,0,0,1,1.125-1.336,9.9,9.9,0,0,0,4.253-3.99,11.472,11.472,0,0,0,1.547-5.889,10.641,10.641,0,0,0-4.429-9.07q-4.923-3.621-12.446-3.621-1.337,0-4.675.246-5.274.422-8.438,0.422-1.9,0-2.777-.07-4.641-.351-5.8-0.352a17.489,17.489,0,0,0-4.149.387,6.114,6.114,0,0,0-2.794,1.424,3.051,3.051,0,0,0-1,2.267,2.369,2.369,0,0,0,.527,1.6,6.589,6.589,0,0,0,2.074,1.353,3.94,3.94,0,0,1,2.11,2.567,29.268,29.268,0,0,1,.492,6.644q0,15.4-.176,17.895a17.7,17.7,0,0,1-.756,4.8,5.209,5.209,0,0,1-2.092,2.408,7.987,7.987,0,0,0-1.758,1.424,2.182,2.182,0,0,0-.386,1.353q0,4.923,13.008,4.922,6.995,0,9.931-.967t2.936-3.287a3.455,3.455,0,0,0-2.11-3.059,5.794,5.794,0,0,1-1.336-.949,2.486,2.486,0,0,1-.527-1.09,33.356,33.356,0,0,1-.562-6.961,11.516,11.516,0,0,1,.369-3.761,1.673,1.673,0,0,1,1.705-.809A4.9,4.9,0,0,1,231.617,770.052ZM226.643,748.4a2.49,2.49,0,0,1,1.933-.632q4.817,0,4.817,6.785,0,3.516-1.407,5.115a5.7,5.7,0,0,1-4.5,1.6,1.977,1.977,0,0,1-1.494-.422,2.705,2.705,0,0,1-.369-1.688v-0.316l0.387-8.192A3.666,3.666,0,0,1,226.643,748.4Zm43.892-7.769q-1.212-.139-3.111-0.527a7.283,7.283,0,0,0-1.617-.211q-2.6,0-5.274,3.586a19.5,19.5,0,0,0-2.637,4.834,13.752,13.752,0,0,0-.984,4.8,5.362,5.362,0,0,0,1.231,3.639,3.953,3.953,0,0,0,3.128,1.424,5.777,5.777,0,0,0,3.481-1.371,20.669,20.669,0,0,0,3.867-4.746q1.3-1.97,2.672-1.969a1.7,1.7,0,0,1,1.617,1.336,14.428,14.428,0,0,1,.492,4.5q0,4.5-.246,10.635t-0.527,8.877a15.038,15.038,0,0,1-.826,4.183,2.751,2.751,0,0,1-1.846,1.477,23.047,23.047,0,0,0-2.5.844,2.534,2.534,0,0,0-1.266,2.25q0,2.672,3.551,3.867,4.219,1.44,12.938,1.441,7.1,0,10.529-1.23t3.428-3.762a2.763,2.763,0,0,0-.686-1.986,8.135,8.135,0,0,0-2.584-1.53,4.3,4.3,0,0,1-2.39-2.109,11.2,11.2,0,0,1-.633-4.395V754.794a8.348,8.348,0,0,1,.562-3.586,1.938,1.938,0,0,1,1.863-1.09,2.207,2.207,0,0,1,1.618.668,13.612,13.612,0,0,1,1.828,2.848,10.944,10.944,0,0,0,2.707,3.427,5.205,5.205,0,0,0,3.234,1.038,5.464,5.464,0,0,0,3.375-1.055,5.232,5.232,0,0,0,1.863-4.465,15.959,15.959,0,0,0-2.689-8.684q-2.69-4.218-5.537-4.218a7.356,7.356,0,0,0-1.863.281,22.776,22.776,0,0,1-5.45.809H273.33A24.483,24.483,0,0,1,270.535,740.626Zm72.317,8.121a7.323,7.323,0,0,1,3.814,2.391,40.116,40.116,0,0,0,3.234,3.445,3,3,0,0,0,1.864.492,3.234,3.234,0,0,0,2.672-1.3,5.49,5.49,0,0,0,1.019-3.48,13.785,13.785,0,0,0-3.094-8.719,3.106,3.106,0,0,0-2.355-1.406,8.66,8.66,0,0,0-.914.07q-4.429.7-17.192,0.7-7.98,0-13.711-.457-2.708-.21-4.113-0.211a6.432,6.432,0,0,0-3.726,1.037,3.057,3.057,0,0,0-1.512,2.584,2.344,2.344,0,0,0,.545,1.67,7.623,7.623,0,0,0,2.3,1.354,3.744,3.744,0,0,1,2.214,2.742,49.074,49.074,0,0,1,.457,8.613q0,15.4-.632,19.723-0.389,2.813-2.356,3.586a13.066,13.066,0,0,0-1.933.879,3.1,3.1,0,0,0-1.125,2.5,3.634,3.634,0,0,0,.773,2.25,3.925,3.925,0,0,0,2,1.406q2.742,0.844,9.984.844a58.367,58.367,0,0,0,12.832-1.09q3.165-.773,3.164-3.48a2.947,2.947,0,0,0-.632-1.864,2.389,2.389,0,0,0-1.547-.949,17.112,17.112,0,0,1-2.3-.439,2.04,2.04,0,0,1-.861-0.686q-1.266-1.335-1.266-7.418,0.035-2.988.035-3.269a2.872,2.872,0,0,1,.492-2.145,3.06,3.06,0,0,1,2.145-.562,4.757,4.757,0,0,1,3.375,1.089,3.541,3.541,0,0,1,1,1.407,11.884,11.884,0,0,1,.439,2.531q0.317,2.778,2.391,2.777a3.461,3.461,0,0,0,3.094-1.863q1.863-3.058,1.863-9.562,0-10.266-4.289-10.266-2.5,0-3.3,3.832a3.082,3.082,0,0,1-1.019,1.9,3.765,3.765,0,0,1-2.286.563,6.956,6.956,0,0,1-3.164-.492,1.9,1.9,0,0,1-.843-1.793,35.759,35.759,0,0,1,.369-4.852,14.909,14.909,0,0,1,.791-3.586q0.561-1.23,2.988-1.23A45.621,45.621,0,0,1,342.852,748.747Zm29.162-7.137a24.4,24.4,0,0,0-11.356,8.367,24.126,24.126,0,0,0-4.746,14.766,24.6,24.6,0,0,0,3.692,13.184,23.442,23.442,0,0,0,10.511,9.246,27.757,27.757,0,0,0,11.637,2.531A30.113,30.113,0,0,0,391,788.227a25.724,25.724,0,0,0,12.129-7.98,22.458,22.458,0,0,0,5.484-14.836,25.223,25.223,0,0,0-2.777-11.25,26.568,26.568,0,0,0-7.418-9.211,25.232,25.232,0,0,0-15.785-5.168,29.528,29.528,0,0,0-10.617,1.828h0Zm10.828,9.563a11.392,11.392,0,0,1,3.094,3.375,31.956,31.956,0,0,1,3.55,8.4,34.321,34.321,0,0,1,1.371,9.176,8.079,8.079,0,0,1-1.634,5.273,5.287,5.287,0,0,1-4.307,2,5.985,5.985,0,0,1-3.252-1.019,8.712,8.712,0,0,1-2.689-2.742,41.171,41.171,0,0,1-4.079-9.264,31.624,31.624,0,0,1-1.617-9.193,8.124,8.124,0,0,1,1.336-4.676,5.326,5.326,0,0,1,4.676-2.637A6.62,6.62,0,0,1,382.842,751.173Zm51.785-1.336a2.863,2.863,0,0,1,1.687-2.039,10.864,10.864,0,0,0,2.831-1.512,2.3,2.3,0,0,0,.58-1.723q0-2.847-4.36-3.8a54.193,54.193,0,0,0-10.195-.7,32.76,32.76,0,0,0-9.7,1.161q-4.254,1.337-4.254,3.9a2.524,2.524,0,0,0,1.125,2,12.487,12.487,0,0,0,2.953,1.3,2.782,2.782,0,0,1,1.846,1.494,11.278,11.278,0,0,1,.439,3.849q0.034,2.954.211,8.789,0.175,6.083.176,9.317,0,6.96-.457,8.4a4.539,4.539,0,0,1-2.567,2.672,9.9,9.9,0,0,0-2.3,1.354,1.984,1.984,0,0,0-.475,1.459,2.614,2.614,0,0,0,1.442,2.425,7.369,7.369,0,0,0,3.41.563h24.574l7.8,0.949a3.016,3.016,0,0,0,1.863-.58,8.6,8.6,0,0,0,1.793-2.162,17.255,17.255,0,0,0,3.234-9.317,7.372,7.372,0,0,0-1.178-4.341,3.578,3.578,0,0,0-3.041-1.67q-1.863,0-2.39,2.285a9.392,9.392,0,0,1-3.235,5.484,10.238,10.238,0,0,1-6.328,1.758q-3.726,0-4.886-1.863-0.95-1.582-.95-7.031V756.13A34.054,34.054,0,0,1,434.627,749.837Zm28.758-8.93a16.655,16.655,0,0,0-5.151,1.6,2.724,2.724,0,0,0-1.459,2.408,2.552,2.552,0,0,0,.493,1.617,8.493,8.493,0,0,0,1.933,1.582,5.22,5.22,0,0,1,2.356,2.6q0.913,2.53.914,11.531,0,13.008-.668,17.016a4.105,4.105,0,0,1-2.039,2.882q-2.252,1.372-2.25,2.954,0,4.359,11.461,4.359a48.982,48.982,0,0,0,11.355-1.125q4.289-1.054,4.289-3.867a3.327,3.327,0,0,0-2.32-3.059,6.454,6.454,0,0,1-1.776-1.178,3.412,3.412,0,0,1-.755-1.564q-0.669-3.2-.668-16.629a71.307,71.307,0,0,1,.509-10.687q0.51-2.744,2.127-3.551a10.283,10.283,0,0,0,2.409-1.494,2.177,2.177,0,0,0,.474-1.53q0-3.093-4.781-4.043a38.945,38.945,0,0,0-7.559-.7,45.3,45.3,0,0,0-8.894.879h0Zm40.008,0.7a24.4,24.4,0,0,0-11.356,8.367,24.126,24.126,0,0,0-4.746,14.766,24.6,24.6,0,0,0,3.691,13.184,23.45,23.45,0,0,0,10.512,9.246,27.757,27.757,0,0,0,11.637,2.531,30.113,30.113,0,0,0,9.246-1.477,25.724,25.724,0,0,0,12.129-7.98,22.458,22.458,0,0,0,5.484-14.836,25.223,25.223,0,0,0-2.777-11.25,26.591,26.591,0,0,0-7.418-9.211,25.232,25.232,0,0,0-15.785-5.168,29.528,29.528,0,0,0-10.617,1.828h0Zm10.828,9.563a11.389,11.389,0,0,1,3.093,3.375,31.923,31.923,0,0,1,3.551,8.4,34.321,34.321,0,0,1,1.371,9.176A8.084,8.084,0,0,1,520.6,777.4a5.287,5.287,0,0,1-4.307,2,5.985,5.985,0,0,1-3.252-1.019,8.712,8.712,0,0,1-2.689-2.742,41.171,41.171,0,0,1-4.079-9.264,31.624,31.624,0,0,1-1.617-9.193,8.124,8.124,0,0,1,1.336-4.676,5.326,5.326,0,0,1,4.676-2.637A6.623,6.623,0,0,1,514.221,751.173Z" transform="translate(-8 -337)"/>
        <path id="Hello_" data-name="Hello!" class="cls-3" d="M305.6,447.656a3.821,3.821,0,0,0,2.373-.659,2.164,2.164,0,0,0,.862-1.82q0-1.722-1.951-1.722h-1.828l2.988-7.348a5.719,5.719,0,0,0,.51-1.863,1.688,1.688,0,0,0-.581-1.3,2.012,2.012,0,0,0-1.406-.528,2.974,2.974,0,0,0-2.812,2.163l-0.211.527-3.393,8.35h-5.607L297.565,436a5.446,5.446,0,0,0,.492-1.81,1.625,1.625,0,0,0-.58-1.257,2.085,2.085,0,0,0-1.441-.519,2.925,2.925,0,0,0-2.777,2.11l-0.194.51-3.427,8.42-0.774.017-2.5.07a18.9,18.9,0,0,0-5.651.9,17.874,17.874,0,0,0-5.037,2.426,13.225,13.225,0,0,0-3.972,4.359,10.774,10.774,0,0,0-1.406,5.309,7.88,7.88,0,0,0,2.417,5.932,8.49,8.49,0,0,0,6.143,2.329q7.014,0,10.547-8.718l3.428-8.42h5.607l-1.459,3.568-0.281.686a4.825,4.825,0,0,0-.4,1.828,2.562,2.562,0,0,0,1,2.135,4.282,4.282,0,0,0,2.707.783h3.6A3.856,3.856,0,0,0,306,456a2.165,2.165,0,0,0,.861-1.82q0-1.722-1.969-1.722h-3.5l1.951-4.8h2.25Zm-20.337,6.556q-2.444,6.03-6.17,6.03a3.637,3.637,0,0,1-2.8-1.2,4.306,4.306,0,0,1-1.108-3.033,6.226,6.226,0,0,1,.932-3.146,9.665,9.665,0,0,1,2.549-2.83,13.367,13.367,0,0,1,8.314-2.373h0.949Zm31.974-2.707a6.273,6.273,0,0,0,3.2-.65,3.805,3.805,0,0,0,1.934-3.516,3.987,3.987,0,0,0-1.4-3.173,5.478,5.478,0,0,0-3.7-1.2,7.218,7.218,0,0,0-5.458,2.461,8.3,8.3,0,0,0-2.294,5.854,5.255,5.255,0,0,0,1.451,4.008,5.926,5.926,0,0,0,4.227,1.371h4.975a3.529,3.529,0,0,0,2.188-.6,1.982,1.982,0,0,0,.782-1.67q0-1.564-2.214-1.564h-5.221q-1.988,0-1.986-1.319h3.515Zm-0.123-4.957a1,1,0,0,1,1.213.932q0.053,0.827-1.828.826h-1.934a2.829,2.829,0,0,1,2.549-1.758h0ZM335.358,436l0.194-.474a3.32,3.32,0,0,0,.263-1.2,1.568,1.568,0,0,0-.518-1.177,1.761,1.761,0,0,0-1.257-.492,2.712,2.712,0,0,0-2.584,1.968l-0.193.475-7.1,17.473a5.73,5.73,0,0,0-.51,1.81,2.019,2.019,0,0,0,.756,1.652,3.16,3.16,0,0,0,2.057.616h3.164a3.529,3.529,0,0,0,2.188-.6,1.979,1.979,0,0,0,.782-1.67q0-1.564-2.232-1.564H328.52Zm9.563,0,0.193-.474a3.3,3.3,0,0,0,.264-1.2,1.565,1.565,0,0,0-.519-1.177,1.759,1.759,0,0,0-1.257-.492,2.713,2.713,0,0,0-2.584,1.968l-0.193.475-7.1,17.473a5.72,5.72,0,0,0-.509,1.81,2.019,2.019,0,0,0,.756,1.652,3.157,3.157,0,0,0,2.056.616h3.164a3.532,3.532,0,0,0,2.189-.6,1.982,1.982,0,0,0,.782-1.67q0-1.564-2.232-1.564h-1.846Zm0.457,9.405a7.961,7.961,0,0,0-2.408,5.783,5.424,5.424,0,0,0,2.355,4.781,7.479,7.479,0,0,0,3.867.686,10.65,10.65,0,0,0,2.734-.273,5.38,5.38,0,0,0,1.889-.993,8.126,8.126,0,0,0,2.233-2.962,8.794,8.794,0,0,0,.861-3.735,5.523,5.523,0,0,0-1.644-4.113,5.723,5.723,0,0,0-4.192-1.618A7.731,7.731,0,0,0,345.378,445.406Zm6.785,1.916a2.259,2.259,0,0,1,.58,1.617,4.547,4.547,0,0,1-1.195,3.094,2.584,2.584,0,0,1-2.057.826q-2.284,0-2.285-2.039a4.311,4.311,0,0,1,1.072-2.83,3.08,3.08,0,0,1,2.373-1.284A1.985,1.985,0,0,1,352.163,447.322Zm7.84,5.625a2.347,2.347,0,0,0-.721,1.722A2.462,2.462,0,1,0,360,452.947ZM370.075,436.3a2.051,2.051,0,0,0-.668-1.547,2.286,2.286,0,0,0-1.635-.632q-1.845,0-2.478,2.25l-3.323,12.023a4.521,4.521,0,0,0-.193,1.143,1.61,1.61,0,0,0,.484,1.186,1.587,1.587,0,0,0,1.168.483q1.373,0,2.356-2.671l3.85-10.424a5.849,5.849,0,0,0,.439-1.811h0Z" transform="translate(-8 -337)"/>
        <path id="DESIGNER" class="cls-4" d="M8.218,695.755h8.718c7.879,0,11.878-6.719,11.878-14.8A18.045,18.045,0,0,0,25.9,670.519c-1.96-2.679-4.8-4.359-9.158-4.359H8.218v29.6Zm6.079-24h2.44a4.644,4.644,0,0,1,4.479,2.479,13.8,13.8,0,0,1,1.36,6.719c0,3.12-.72,9.2-5.639,9.2H14.3v-18.4Zm20.681,24h14.4v-5.6H41.057v-7.119h8.319v-5.6H41.057v-5.679h8.319v-5.6h-14.4v29.6Zm20.56-9.319c0,6.239,2.959,9.879,9.718,9.879,5.639,0,9.8-3.4,9.8-8.959,0-5.639-3.2-7.638-6.4-8.918s-6.4-1.8-6.4-4.6a3.024,3.024,0,0,1,3.079-3.24c1.96,0,3.159,1.28,3.239,3.439h5.919c-0.88-5.839-3.919-8.478-9.4-8.478-5.639,0-9.078,3.6-9.078,9.2,0,5,3.2,6.839,6.4,8.119,3.2,1.24,6.4,1.88,6.4,4.559a3.2,3.2,0,0,1-3.44,3.52c-2.639,0-3.679-1.44-3.759-4.52H55.538Zm25.4,9.319h6.079v-29.6H80.938v29.6ZM114.294,676.6c-0.36-6.839-4.159-11-10.358-11-7.4,0-11.078,6.159-11.078,15.357,0,9.6,3.479,15.358,11.078,15.358,6.4,0,10.358-4.759,10.358-10.958v-5.719H102.976v5.6h5.079a6.541,6.541,0,0,1-.88,3.8,3.613,3.613,0,0,1-3.239,1.68c-3.319,0-4.839-2.64-4.839-9.759,0-7,1.64-9.758,4.839-9.758a3.633,3.633,0,0,1,3.479,2.32,7.017,7.017,0,0,1,.64,3.079h6.239Zm12.482-10.438h-6.159v29.6h5.359V676.8l8.319,18.957h5.439v-29.6h-5.359v17.4Zm20.441,29.6h14.4v-5.6H153.3v-7.119h8.319v-5.6H153.3v-5.679h8.319v-5.6h-14.4v29.6Zm21.72,0h6.079v-24h1.4a4.635,4.635,0,0,1,3.119.8,4.264,4.264,0,0,1,1.4,3.6,4.6,4.6,0,0,1-1.32,3.4,4.705,4.705,0,0,1-3,1.119c-0.48.04-.84,0.04-1.52,0.04l6.519,15.038h6.8l-5.6-11.8a7.971,7.971,0,0,0,3.479-3.88,10.916,10.916,0,0,0,.88-4.479,10.158,10.158,0,0,0-2.4-6.839c-1.279-1.519-3.959-2.6-8.158-2.6h-7.679v29.6Z" transform="translate(-8 -337)"/>
        <path id="HANGAEUN" class="cls-4" d="M440.857,695.755V683.037H448.1v12.718h6.079v-29.6H448.1v11.278h-7.239V666.16h-6.079v29.6h6.079Zm25.52-5.639h6.8l1.519,5.639h6.159l-8.4-29.6h-5.6l-8.079,29.6h6.159Zm5.239-5.6h-3.759l1.879-9.679Zm20.121-18.357h-6.159v29.6h5.359V676.8l8.318,18.957h5.439v-29.6h-5.359v17.4Zm40.4,10.438c-0.36-6.839-4.159-11-10.358-11-7.4,0-11.078,6.159-11.078,15.357,0,9.6,3.479,15.358,11.078,15.358,6.4,0,10.358-4.759,10.358-10.958v-5.719H520.816v5.6H525.9a6.541,6.541,0,0,1-.88,3.8,3.616,3.616,0,0,1-3.239,1.68c-3.32,0-4.839-2.64-4.839-9.759,0-7,1.639-9.758,4.839-9.758a3.635,3.635,0,0,1,3.479,2.32,7.017,7.017,0,0,1,.64,3.079h6.239ZM542.7,690.116h6.8l1.519,5.639h6.159l-8.4-29.6h-5.6l-8.079,29.6h6.159Zm5.239-5.6h-3.76l1.88-9.679Zm14.121,11.238h14.4v-5.6h-8.319v-7.119h8.319v-5.6h-8.319v-5.679h8.319v-5.6h-14.4v29.6Zm21.641-29.6v21.156a9.005,9.005,0,0,0,2.2,6.439c1.56,1.6,4,2.56,7.559,2.56s6-.96,7.559-2.56a8.837,8.837,0,0,0,2.2-6.439V666.16h-6.079v20.156a5.086,5.086,0,0,1-.8,3.24,3.473,3.473,0,0,1-2.879,1.04,3.339,3.339,0,0,1-2.84-1.04,4.837,4.837,0,0,1-.839-3.24V666.16H583.7Zm32.8,0h-6.159v29.6H615.7V676.8l8.319,18.957h5.439v-29.6H624.1v17.4Z" transform="translate(-8 -337)"/>
      </g>
    </g>
  </g>
</svg>
